<?xml version="1.0" encoding="UTF-8" standalone="no"?>
<!-- Created with Inkscape (http://www.inkscape.org/) -->

<svg
   xmlns:osb="http://www.openswatchbook.org/uri/2009/osb"
   xmlns:dc="http://purl.org/dc/elements/1.1/"
   xmlns:cc="http://creativecommons.org/ns#"
   xmlns:rdf="http://www.w3.org/1999/02/22-rdf-syntax-ns#"
   xmlns:svg="http://www.w3.org/2000/svg"
   xmlns="http://www.w3.org/2000/svg"
   xmlns:xlink="http://www.w3.org/1999/xlink"
   xmlns:sodipodi="http://sodipodi.sourceforge.net/DTD/sodipodi-0.dtd"
   xmlns:inkscape="http://www.inkscape.org/namespaces/inkscape"
   width="180"
   height="234"
   viewBox="0 0 180 234"
   version="1.1"
   inkscape:version="0.91 r13725"
   sodipodi:docname="tileset01.svg"
   id="svg4256">
  <defs
     id="defs4258">
    <linearGradient
       id="linearGradient4208"
       osb:paint="solid">
      <stop
         style="stop-color:#00ff00;stop-opacity:1;"
         offset="0"
         id="stop4210" />
    </linearGradient>
  </defs>
  <sodipodi:namedview
     pagecolor="#ffffff"
     bordercolor="#666666"
     borderopacity="1.0"
     inkscape:pageopacity="0.0"
     inkscape:pageshadow="2"
     inkscape:zoom="3.959798"
     inkscape:cx="80.772464"
     inkscape:cy="46.713329"
     inkscape:document-units="px"
     showgrid="false"
     units="px"
     borderlayer="true"
     inkscape:showpageshadow="false"
     showguides="true"
     inkscape:guide-bbox="true"
     inkscape:window-width="1366"
     inkscape:window-height="744"
     inkscape:window-x="0"
     inkscape:window-y="24"
     inkscape:window-maximized="1"
     id="namedview4262"
     inkscape:current-layer="svg4256">
    <sodipodi:guide
       position="30,0"
       orientation="1,0"
       id="guide4136"
       inkscape:label=""
       inkscape:color="rgb(0,0,255)" />
    <sodipodi:guide
       position="60,0"
       orientation="1,0"
       id="guide4138"
       inkscape:label=""
       inkscape:color="rgb(0,0,255)" />
    <sodipodi:guide
       position="90,0"
       orientation="1,0"
       id="guide4140"
       inkscape:label=""
       inkscape:color="rgb(0,0,255)" />
    <sodipodi:guide
       position="120,0"
       orientation="1,0"
       id="guide4142"
       inkscape:label=""
       inkscape:color="rgb(0,0,255)" />
    <sodipodi:guide
       position="150,0"
       orientation="1,0"
       id="guide4144"
       inkscape:label=""
       inkscape:color="rgb(0,0,255)" />
    <sodipodi:guide
       position="0,39"
       orientation="0,1"
       id="guide4146"
       inkscape:label=""
       inkscape:color="rgb(0,0,255)" />
    <sodipodi:guide
       position="0,78"
       orientation="0,1"
       id="guide4150"
       inkscape:label=""
       inkscape:color="rgb(0,0,255)" />
    <sodipodi:guide
       position="0,117"
       orientation="0,1"
       id="guide4152"
       inkscape:label=""
       inkscape:color="rgb(0,0,255)" />
    <sodipodi:guide
       position="0,156"
       orientation="0,1"
       id="guide4154"
       inkscape:label=""
       inkscape:color="rgb(0,0,255)" />
    <sodipodi:guide
       position="0,195"
       orientation="0,1"
       id="guide4156"
       inkscape:label=""
       inkscape:color="rgb(0,0,255)" />
  </sodipodi:namedview>
  <metadata
     id="metadata4274">
    <rdf:RDF>
      <cc:Work
         rdf:about="">
        <dc:title />
        <dc:format>image/svg+xml</dc:format>
        <dc:type
           rdf:resource="http://purl.org/dc/dcmitype/StillImage" />
      </cc:Work>
    </rdf:RDF>
  </metadata>
  <g
     id="Tile_01"
     transform="matrix(1.9441346,0,0,1.9441346,-26.58292,-22.848292)">
    <use
       height="100%"
       width="100%"
       transform="translate(-53.75,2.8571429)"
       id="use4243"
       xlink:href="#path4202"
       y="0"
       x="0" />
  </g>
  <g
     id="Tile_02">
    <use
       height="100%"
       width="100%"
       transform="matrix(1.3217885,0,0,1.3217885,-46.976041,17.983351)"
       id="use4230"
       xlink:href="#path4228"
       y="0"
       x="0" />
    <use
       height="100%"
       width="100%"
       transform="matrix(1.3217884,0,0,1.3217884,-62.013075,-29.121336)"
       id="use4236"
       xlink:href="#path4226"
       y="0"
       x="0" />
  </g>
  <g
     id="Tile_03">
    <path
       style="opacity:1;fill:#3b52c7;fill-opacity:1;fill-rule:evenodd;stroke:none;stroke-width:0.1;stroke-miterlimit:4;stroke-dasharray:none;stroke-opacity:1"
       d="M 69.250606,2.1328801 A 5.6741302,5.6741302 0 0 0 63.576475,7.8070093 5.6741302,5.6741302 0 0 0 69.250606,13.48114 5.6741302,5.6741302 0 0 0 74.924735,7.8070093 5.6741302,5.6741302 0 0 0 69.250606,2.1328801 Z m 3.633511,1.9932833 a 3.7335582,3.7335584 0 0 1 -3.679319,3.6822849 3.7335582,3.7335584 0 0 1 3.679319,-3.6822849 z m -7.463551,0 a 3.7335582,3.7335584 0 0 1 3.682275,3.6778199 3.7335582,3.7335584 0 0 1 -3.682275,-3.6778199 z m 3.680797,3.7798029 a 3.7335582,3.7335584 0 0 1 -3.679318,3.6822847 3.7335582,3.7335584 0 0 1 3.679318,-3.6822847 z m 0.101961,0 A 3.7335582,3.7335584 0 0 1 72.8856,11.585299 3.7335582,3.7335584 0 0 1 69.203324,7.9059663 Z"
       id="path4228"
       inkscape:connector-curvature="0" />
    <path
       style="opacity:1;fill:#e44926;fill-opacity:1;fill-rule:evenodd;stroke:none;stroke-width:0.1;stroke-miterlimit:4;stroke-dasharray:none;stroke-opacity:1"
       d="m 75.096904,13.588461 a 5.6741302,5.6741302 0 0 0 -5.674132,5.674129 5.6741302,5.6741302 0 0 0 5.674132,5.674131 5.6741302,5.6741302 0 0 0 5.674129,-5.674131 5.6741302,5.6741302 0 0 0 -5.674129,-5.674129 z m 3.63351,1.993283 a 3.7335582,3.7335584 0 0 1 -3.679319,3.682285 3.7335582,3.7335584 0 0 1 3.679319,-3.682285 z m -7.463551,0 a 3.7335582,3.7335584 0 0 1 3.682275,3.67782 3.7335582,3.7335584 0 0 1 -3.682275,-3.67782 z m 3.680797,3.779803 a 3.7335582,3.7335584 0 0 1 -3.679317,3.682285 3.7335582,3.7335584 0 0 1 3.679317,-3.682285 z m 0.101961,0 a 3.7335582,3.7335584 0 0 1 3.682276,3.679333 3.7335582,3.7335584 0 0 1 -3.682276,-3.679333 z"
       id="path4202"
       inkscape:connector-curvature="0" />
    <path
       inkscape:connector-curvature="0"
       id="path4226"
       d="m 80.627184,25.044043 a 5.6741302,5.6741302 0 0 0 -5.674132,5.674129 5.6741302,5.6741302 0 0 0 5.674132,5.674131 5.6741302,5.6741302 0 0 0 5.674129,-5.674131 5.6741302,5.6741302 0 0 0 -5.674129,-5.674129 z m 3.63351,1.993283 a 3.7335582,3.7335584 0 0 1 -3.679319,3.682285 3.7335582,3.7335584 0 0 1 3.679319,-3.682285 z m -7.46355,0 a 3.7335582,3.7335584 0 0 1 3.682274,3.67782 3.7335582,3.7335584 0 0 1 -3.682274,-3.67782 z m 3.680796,3.779803 a 3.7335582,3.7335584 0 0 1 -3.679317,3.682285 3.7335582,3.7335584 0 0 1 3.679317,-3.682285 z m 0.101961,0 a 3.7335582,3.7335584 0 0 1 3.682276,3.679333 3.7335582,3.7335584 0 0 1 -3.682276,-3.679333 z"
       style="opacity:1;fill:#05ac61;fill-opacity:1;fill-rule:evenodd;stroke:none;stroke-width:0.1;stroke-miterlimit:4;stroke-dasharray:none;stroke-opacity:1" />
  </g>
  <g
     id="Tile_04">
    <use
       height="100%"
       width="100%"
       transform="translate(29.548525,0.39259094)"
       id="use4251"
       xlink:href="#path4228"
       y="0"
       x="0" />
    <use
       height="100%"
       width="100%"
       transform="translate(18.172821,0.12626913)"
       id="use4257"
       xlink:href="#path4226"
       y="0"
       x="0" />
    <use
       height="100%"
       width="100%"
       transform="translate(42.306525,23.037358)"
       id="use4255"
       xlink:href="#path4228"
       y="0"
       x="0" />
    <use
       height="100%"
       width="100%"
       transform="translate(30.929576,-22.521851)"
       id="use4253"
       xlink:href="#path4226"
       y="0"
       x="0" />
  </g>
  <g
     id="Tile_05"
     transform="translate(29.642857,0)">
    <use
       x="0"
       y="0"
       xlink:href="#path4228"
       id="use4277"
       transform="translate(29.548525,0.39259094)"
       width="100%"
       height="100%" />
    <use
       x="0"
       y="0"
       xlink:href="#path4226"
       id="use4279"
       transform="translate(18.172821,0.12626913)"
       width="100%"
       height="100%" />
    <use
       x="0"
       y="0"
       xlink:href="#path4202"
       id="use4285"
       transform="translate(30,0)"
       width="100%"
       height="100%" />
    <use
       x="0"
       y="0"
       xlink:href="#path4228"
       id="use4281"
       transform="translate(42.306525,23.037358)"
       width="100%"
       height="100%" />
    <use
       x="0"
       y="0"
       xlink:href="#path4226"
       id="use4283"
       transform="translate(30.929576,-22.521851)"
       width="100%"
       height="100%" />
  </g>
  <g
     id="Tile_06">
    <use
       height="100%"
       width="100%"
       transform="translate(77.806948,-24.054257)"
       id="use4321"
       xlink:href="#path4226"
       y="0"
       x="0" />
    <use
       height="100%"
       width="100%"
       transform="translate(90.307948,-24.05463)"
       id="use4319"
       xlink:href="#path4226"
       y="0"
       x="0" />
    <use
       height="100%"
       width="100%"
       transform="translate(95.838228,12.753432)"
       id="use4307"
       xlink:href="#path4202"
       y="0"
       x="0" />
    <use
       height="100%"
       width="100%"
       transform="translate(83.337228,12.753177)"
       id="use4309"
       xlink:href="#path4202"
       y="0"
       x="0" />
    <use
       height="100%"
       width="100%"
       transform="translate(95.838223,0)"
       id="use4311"
       xlink:href="#path4202"
       y="0"
       x="0" />
    <use
       height="100%"
       width="100%"
       transform="translate(83.337585,0)"
       id="use4313"
       xlink:href="#path4202"
       y="0"
       x="0" />
  </g>
  <g
     id="Tile_07"
     transform="matrix(0.73527676,0,0,0.73527676,-106.53807,48.496704)">
    <use
       height="100%"
       width="100%"
       transform="translate(72.655048,-34.873246)"
       id="use4351"
       xlink:href="#path4226"
       y="0"
       x="0" />
    <use
       x="0"
       y="0"
       xlink:href="#path4226"
       id="use4339"
       transform="translate(84.160958,-28.347507)"
       width="100%"
       height="100%" />
    <use
       x="0"
       y="0"
       xlink:href="#path4226"
       id="use4341"
       transform="translate(95.803308,-23.19598)"
       width="100%"
       height="100%" />
    <use
       x="0"
       y="0"
       xlink:href="#path4202"
       id="use4343"
       transform="translate(95.838228,12.753432)"
       width="100%"
       height="100%" />
    <use
       x="0"
       y="0"
       xlink:href="#path4202"
       id="use4345"
       transform="translate(83.337228,12.753177)"
       width="100%"
       height="100%" />
    <use
       x="0"
       y="0"
       xlink:href="#path4202"
       id="use4347"
       transform="translate(95.838223,0)"
       width="100%"
       height="100%" />
    <use
       x="0"
       y="0"
       xlink:href="#path4202"
       id="use4349"
       transform="translate(83.337585,0)"
       width="100%"
       height="100%" />
  </g>
  <g
     id="Tile_08">
    <use
       height="100%"
       width="100%"
       transform="matrix(0.7190981,0,0,0.7190981,-9.9024954,39.704019)"
       id="use4353"
       xlink:href="#path4228"
       y="0"
       x="0" />
    <use
       x="0"
       y="0"
       xlink:href="#path4228"
       id="use4356"
       transform="matrix(0.7190981,0,0,0.7190981,-9.9024954,48.633175)"
       width="100%"
       height="100%" />
    <use
       height="100%"
       width="100%"
       transform="matrix(0.7190981,0,0,0.7190981,-9.9024954,57.407042)"
       id="use4358"
       xlink:href="#path4228"
       y="0"
       x="0" />
    <use
       x="0"
       y="0"
       xlink:href="#path4228"
       id="use4360"
       transform="matrix(0.7190981,0,0,0.7190981,-9.9024954,66.025619)"
       width="100%"
       height="100%" />
    <use
       x="0"
       y="0"
       xlink:href="#path4228"
       id="use4362"
       transform="matrix(0.7190981,0,0,0.7190981,-0.19689082,39.704019)"
       width="100%"
       height="100%" />
    <use
       height="100%"
       width="100%"
       transform="matrix(0.7190981,0,0,0.7190981,-0.19689082,48.633175)"
       id="use4364"
       xlink:href="#path4228"
       y="0"
       x="0" />
    <use
       x="0"
       y="0"
       xlink:href="#path4228"
       id="use4366"
       transform="matrix(0.7190981,0,0,0.7190981,-0.19689082,57.407042)"
       width="100%"
       height="100%" />
    <use
       height="100%"
       width="100%"
       transform="matrix(0.7190981,0,0,0.7190981,-0.19689082,66.025619)"
       id="use4368"
       xlink:href="#path4228"
       y="0"
       x="0" />
  </g>
  <g
     id="Tile_09">
    <use
       height="100%"
       width="100%"
       transform="matrix(0.76095825,0,0,0.76095825,13.137342,65.399291)"
       id="use4386"
       xlink:href="#path4228"
       y="0"
       x="0" />
    <use
       height="100%"
       width="100%"
       transform="matrix(0.76095825,0,0,0.76095825,8.6885543,43.815104)"
       id="use4383"
       xlink:href="#path4202"
       y="0"
       x="0" />
    <use
       height="100%"
       width="100%"
       transform="matrix(0.76095825,0,0,0.76095825,4.4806083,22.398284)"
       id="use4380"
       xlink:href="#path4226"
       y="0"
       x="0" />
    <use
       x="0"
       y="0"
       xlink:href="#path4228"
       id="use4389"
       transform="matrix(0.76095825,0,0,0.76095825,22.409591,65.399291)"
       width="100%"
       height="100%" />
    <use
       x="0"
       y="0"
       xlink:href="#path4202"
       id="use4391"
       transform="matrix(0.76095825,0,0,0.76095825,17.960804,43.815104)"
       width="100%"
       height="100%" />
    <use
       x="0"
       y="0"
       xlink:href="#path4226"
       id="use4393"
       transform="matrix(0.76095825,0,0,0.76095825,13.752857,22.398284)"
       width="100%"
       height="100%" />
    <use
       height="100%"
       width="100%"
       transform="matrix(0.76095825,0,0,0.76095825,31.633799,65.399291)"
       id="use4395"
       xlink:href="#path4228"
       y="0"
       x="0" />
    <use
       height="100%"
       width="100%"
       transform="matrix(0.76095825,0,0,0.76095825,27.185011,43.815104)"
       id="use4397"
       xlink:href="#path4202"
       y="0"
       x="0" />
    <use
       height="100%"
       width="100%"
       transform="matrix(0.76095825,0,0,0.76095825,22.977065,22.398284)"
       id="use4399"
       xlink:href="#path4226"
       y="0"
       x="0" />
  </g>
  <g
     id="Tile_10"
     transform="translate(89.903576,-157.07872)">
    <text
       transform="scale(1.0636556,0.94015394)"
       sodipodi:linespacing="125%"
       id="text4330"
       y="243.23584"
       x="3.368921"
       style="font-style:normal;font-variant:normal;font-weight:bold;font-stretch:normal;font-size:20.2586956px;line-height:125%;font-family:UnBatang;-inkscape-font-specification:'UnBatang Bold';letter-spacing:0px;word-spacing:0px;fill:#e44926;fill-opacity:1;stroke:none;stroke-width:1px;stroke-linecap:butt;stroke-linejoin:miter;stroke-opacity:1"
       xml:space="preserve"><tspan
         y="243.23584"
         x="3.368921"
         id="tspan4332"
         sodipodi:role="line">萬</tspan></text>
    <text
       sodipodi:linespacing="125%"
       id="text4334"
       y="210.30612"
       x="14.173089"
       style="font-style:normal;font-variant:normal;font-weight:bold;font-stretch:normal;font-size:17.04081726px;line-height:125%;font-family:unbatang;-inkscape-font-specification:'unbatang Bold';text-align:center;letter-spacing:0px;word-spacing:0px;text-anchor:middle;fill:#0e00ff;fill-opacity:1;stroke:none;stroke-width:1px;stroke-linecap:butt;stroke-linejoin:miter;stroke-opacity:1"
       xml:space="preserve"><tspan
         y="210.30612"
         x="14.173089"
         id="tspan4336"
         sodipodi:role="line">一</tspan></text>
  </g>
  <g
     transform="translate(119.95561,-157.07872)"
     id="Tile_11">
    <text
       xml:space="preserve"
       style="font-style:normal;font-variant:normal;font-weight:bold;font-stretch:normal;font-size:20.2586956px;line-height:125%;font-family:UnBatang;-inkscape-font-specification:'UnBatang Bold';letter-spacing:0px;word-spacing:0px;fill:#e44926;fill-opacity:1;stroke:none;stroke-width:1px;stroke-linecap:butt;stroke-linejoin:miter;stroke-opacity:1"
       x="3.368921"
       y="243.23584"
       id="text4355"
       sodipodi:linespacing="125%"
       transform="scale(1.0636556,0.94015394)"><tspan
         sodipodi:role="line"
         id="tspan4357"
         x="3.368921"
         y="243.23584">萬</tspan></text>
    <text
       xml:space="preserve"
       style="font-style:normal;font-variant:normal;font-weight:bold;font-stretch:normal;font-size:17.04081726px;line-height:125%;font-family:unbatang;-inkscape-font-specification:'unbatang Bold';text-align:center;letter-spacing:0px;word-spacing:0px;text-anchor:middle;fill:#3b52c7;fill-opacity:1;stroke:none;stroke-width:1px;stroke-linecap:butt;stroke-linejoin:miter;stroke-opacity:1"
       x="14.425627"
       y="210.30612"
       id="text4359"
       sodipodi:linespacing="125%"><tspan
         sodipodi:role="line"
         id="tspan4361"
         x="14.425627"
         y="210.30612">二</tspan></text>
  </g>
  <g
     id="Tile_12"
     transform="translate(150.76526,-157.07872)">
    <text
       transform="scale(1.0636556,0.94015394)"
       sodipodi:linespacing="125%"
       id="text4365"
       y="243.23584"
       x="3.368921"
       style="font-style:normal;font-variant:normal;font-weight:bold;font-stretch:normal;font-size:20.2586956px;line-height:125%;font-family:UnBatang;-inkscape-font-specification:'UnBatang Bold';letter-spacing:0px;word-spacing:0px;fill:#e44926;fill-opacity:1;stroke:none;stroke-width:1px;stroke-linecap:butt;stroke-linejoin:miter;stroke-opacity:1"
       xml:space="preserve"><tspan
         y="243.23584"
         x="3.368921"
         id="tspan4367"
         sodipodi:role="line">萬</tspan></text>
    <text
       sodipodi:linespacing="125%"
       id="text4369"
       y="210.30612"
       x="14.173089"
       style="font-style:normal;font-variant:normal;font-weight:bold;font-stretch:normal;font-size:17.04081726px;line-height:125%;font-family:unbatang;-inkscape-font-specification:'unbatang Bold';text-align:center;letter-spacing:0px;word-spacing:0px;text-anchor:middle;fill:#3b52c7;fill-opacity:1;stroke:none;stroke-width:1px;stroke-linecap:butt;stroke-linejoin:miter;stroke-opacity:1"
       xml:space="preserve"><tspan
         y="210.30612"
         x="14.173089"
         id="tspan4371"
         sodipodi:role="line">三</tspan></text>
  </g>
  <g
     transform="translate(0.50506996,-117.68277)"
     id="Tile_13">
    <text
       xml:space="preserve"
       style="font-style:normal;font-variant:normal;font-weight:bold;font-stretch:normal;font-size:20.2586956px;line-height:125%;font-family:UnBatang;-inkscape-font-specification:'UnBatang Bold';letter-spacing:0px;word-spacing:0px;fill:#e44926;fill-opacity:1;stroke:none;stroke-width:1px;stroke-linecap:butt;stroke-linejoin:miter;stroke-opacity:1"
       x="3.368921"
       y="243.23584"
       id="text4375"
       sodipodi:linespacing="125%"
       transform="scale(1.0636556,0.94015394)"><tspan
         sodipodi:role="line"
         id="tspan4377"
         x="3.368921"
         y="243.23584">萬</tspan></text>
    <text
       xml:space="preserve"
       style="font-style:normal;font-variant:normal;font-weight:bold;font-stretch:normal;font-size:17.04081726px;line-height:125%;font-family:unbatang;-inkscape-font-specification:'unbatang Bold';text-align:center;letter-spacing:0px;word-spacing:0px;text-anchor:middle;fill:#3b52c7;fill-opacity:1;stroke:none;stroke-width:1px;stroke-linecap:butt;stroke-linejoin:miter;stroke-opacity:1"
       x="14.425627"
       y="210.30612"
       id="text4379"
       sodipodi:linespacing="125%"><tspan
         sodipodi:role="line"
         id="tspan4381"
         x="14.425627"
         y="210.30612">四</tspan></text>
  </g>
  <g
     id="Tile_14"
     transform="translate(31.062184,-117.68277)">
    <text
       transform="scale(1.0636556,0.94015394)"
       sodipodi:linespacing="125%"
       id="text4385"
       y="243.23584"
       x="3.368921"
       style="font-style:normal;font-variant:normal;font-weight:bold;font-stretch:normal;font-size:20.2586956px;line-height:125%;font-family:UnBatang;-inkscape-font-specification:'UnBatang Bold';letter-spacing:0px;word-spacing:0px;fill:#e44926;fill-opacity:1;stroke:none;stroke-width:1px;stroke-linecap:butt;stroke-linejoin:miter;stroke-opacity:1"
       xml:space="preserve"><tspan
         y="243.23584"
         x="3.368921"
         id="tspan4387"
         sodipodi:role="line">萬</tspan></text>
    <text
       sodipodi:linespacing="125%"
       id="text4389"
       y="210.30612"
       x="14.173089"
       style="font-style:normal;font-variant:normal;font-weight:bold;font-stretch:normal;font-size:17.04081726px;line-height:125%;font-family:unbatang;-inkscape-font-specification:'unbatang Bold';text-align:center;letter-spacing:0px;word-spacing:0px;text-anchor:middle;fill:#3b52c7;fill-opacity:1;stroke:none;stroke-width:1px;stroke-linecap:butt;stroke-linejoin:miter;stroke-opacity:1"
       xml:space="preserve"><tspan
         y="210.30612"
         x="14.173089"
         id="tspan4391"
         sodipodi:role="line">五</tspan></text>
  </g>
  <g
     transform="translate(60.609146,-117.68277)"
     id="Tile_15">
    <text
       xml:space="preserve"
       style="font-style:normal;font-variant:normal;font-weight:bold;font-stretch:normal;font-size:20.2586956px;line-height:125%;font-family:UnBatang;-inkscape-font-specification:'UnBatang Bold';letter-spacing:0px;word-spacing:0px;fill:#e44926;fill-opacity:1;stroke:none;stroke-width:1px;stroke-linecap:butt;stroke-linejoin:miter;stroke-opacity:1"
       x="3.368921"
       y="243.23584"
       id="text4395"
       sodipodi:linespacing="125%"
       transform="scale(1.0636556,0.94015394)"><tspan
         sodipodi:role="line"
         id="tspan4397"
         x="3.368921"
         y="243.23584">萬</tspan></text>
    <text
       xml:space="preserve"
       style="font-style:normal;font-variant:normal;font-weight:bold;font-stretch:normal;font-size:17.04081726px;line-height:125%;font-family:unbatang;-inkscape-font-specification:'unbatang Bold';text-align:center;letter-spacing:0px;word-spacing:0px;text-anchor:middle;fill:#3b52c7;fill-opacity:1;stroke:none;stroke-width:1px;stroke-linecap:butt;stroke-linejoin:miter;stroke-opacity:1"
       x="14.173089"
       y="210.30612"
       id="text4399"
       sodipodi:linespacing="125%"><tspan
         sodipodi:role="line"
         id="tspan4401"
         x="14.173089"
         y="210.30612">六</tspan></text>
  </g>
  <g
     id="Tile_16"
     transform="translate(90.661184,-117.68277)">
    <text
       transform="scale(1.0636556,0.94015394)"
       sodipodi:linespacing="125%"
       id="text4405"
       y="243.23584"
       x="3.368921"
       style="font-style:normal;font-variant:normal;font-weight:bold;font-stretch:normal;font-size:20.2586956px;line-height:125%;font-family:UnBatang;-inkscape-font-specification:'UnBatang Bold';letter-spacing:0px;word-spacing:0px;fill:#e44926;fill-opacity:1;stroke:none;stroke-width:1px;stroke-linecap:butt;stroke-linejoin:miter;stroke-opacity:1"
       xml:space="preserve"><tspan
         y="243.23584"
         x="3.368921"
         id="tspan4407"
         sodipodi:role="line">萬</tspan></text>
    <text
       sodipodi:linespacing="125%"
       id="text4409"
       y="210.30612"
       x="14.173089"
       style="font-style:normal;font-variant:normal;font-weight:bold;font-stretch:normal;font-size:17.04081726px;line-height:125%;font-family:unbatang;-inkscape-font-specification:'unbatang Bold';text-align:center;letter-spacing:0px;word-spacing:0px;text-anchor:middle;fill:#3b52c7;fill-opacity:1;stroke:none;stroke-width:1px;stroke-linecap:butt;stroke-linejoin:miter;stroke-opacity:1"
       xml:space="preserve"><tspan
         y="210.30612"
         x="14.173089"
         id="tspan4411"
         sodipodi:role="line">七</tspan></text>
  </g>
  <g
     transform="translate(120.20815,-117.68277)"
     id="Tile_17">
    <text
       xml:space="preserve"
       style="font-style:normal;font-variant:normal;font-weight:bold;font-stretch:normal;font-size:20.2586956px;line-height:125%;font-family:UnBatang;-inkscape-font-specification:'UnBatang Bold';letter-spacing:0px;word-spacing:0px;fill:#e44926;fill-opacity:1;stroke:none;stroke-width:1px;stroke-linecap:butt;stroke-linejoin:miter;stroke-opacity:1"
       x="3.368921"
       y="243.23584"
       id="text4415"
       sodipodi:linespacing="125%"
       transform="scale(1.0636556,0.94015394)"><tspan
         sodipodi:role="line"
         id="tspan4417"
         x="3.368921"
         y="243.23584">萬</tspan></text>
    <text
       xml:space="preserve"
       style="font-style:normal;font-variant:normal;font-weight:bold;font-stretch:normal;font-size:17.04081726px;line-height:125%;font-family:unbatang;-inkscape-font-specification:'unbatang Bold';text-align:center;letter-spacing:0px;word-spacing:0px;text-anchor:middle;fill:#3b52c7;fill-opacity:1;stroke:none;stroke-width:1px;stroke-linecap:butt;stroke-linejoin:miter;stroke-opacity:1"
       x="14.173089"
       y="210.30612"
       id="text4419"
       sodipodi:linespacing="125%"><tspan
         sodipodi:role="line"
         id="tspan4421"
         x="14.173089"
         y="210.30612">八</tspan></text>
  </g>
  <g
     id="Tile_18"
     transform="translate(150.51273,-117.68277)">
    <text
       transform="scale(1.0636556,0.94015394)"
       sodipodi:linespacing="125%"
       id="text4425"
       y="243.23584"
       x="3.368921"
       style="font-style:normal;font-variant:normal;font-weight:bold;font-stretch:normal;font-size:20.2586956px;line-height:125%;font-family:UnBatang;-inkscape-font-specification:'UnBatang Bold';letter-spacing:0px;word-spacing:0px;fill:#e44926;fill-opacity:1;stroke:none;stroke-width:1px;stroke-linecap:butt;stroke-linejoin:miter;stroke-opacity:1"
       xml:space="preserve"><tspan
         y="243.23584"
         x="3.368921"
         id="tspan4427"
         sodipodi:role="line">萬</tspan></text>
    <text
       sodipodi:linespacing="125%"
       id="text4429"
       y="210.30612"
       x="14.173089"
       style="font-style:normal;font-variant:normal;font-weight:bold;font-stretch:normal;font-size:17.04081726px;line-height:125%;font-family:unbatang;-inkscape-font-specification:'unbatang Bold';text-align:center;letter-spacing:0px;word-spacing:0px;text-anchor:middle;fill:#3b52c7;fill-opacity:1;stroke:none;stroke-width:1px;stroke-linecap:butt;stroke-linejoin:miter;stroke-opacity:1"
       xml:space="preserve"><tspan
         y="210.30612"
         x="14.173089"
         id="tspan4431"
         sodipodi:role="line">九</tspan></text>
  </g>
  <g
     id="Tile_23">
    <path
       inkscape:connector-curvature="0"
       id="path4251"
       d="m 134.79839,131.93018 a 2.4532687,1.0151456 0 0 0 -2.45347,1.01409 2.4532687,1.0151456 0 0 0 1.01803,0.82175 l 0,2.00595 a 2.4532687,1.0151456 0 0 0 -1.01803,0.82176 2.4532687,1.0151456 0 0 0 1.01803,0.82045 l 0,1.94708 a 2.4532687,1.0151456 0 0 0 -1.01803,0.82043 2.4532687,1.0151456 0 0 0 2.45347,1.01542 2.4532687,1.0151456 0 0 0 2.45348,-1.01542 2.4532687,1.0151456 0 0 0 -1.07822,-0.83745 l 0,-1.91044 a 2.4532687,1.0151456 0 0 0 1.07822,-0.84007 2.4532687,1.0151456 0 0 0 -1.07822,-0.83876 l 0,-1.96932 a 2.4532687,1.0151456 0 0 0 1.07822,-0.84138 2.4532687,1.0151456 0 0 0 -2.45348,-1.01409 z"
       style="fill:none;fill-opacity:1;stroke:#e44926;stroke-width:1;stroke-miterlimit:4;stroke-dasharray:none;stroke-opacity:1" />
    <path
       style="fill:none;fill-opacity:1;stroke:#05ac61;stroke-width:1;stroke-miterlimit:4;stroke-dasharray:none;stroke-opacity:1"
       d="m 128.10613,120.69223 a 2.4532687,1.0151456 0 0 0 -2.45347,1.01409 2.4532687,1.0151456 0 0 0 1.01803,0.82175 l 0,2.00595 a 2.4532687,1.0151456 0 0 0 -1.01803,0.82176 2.4532687,1.0151456 0 0 0 1.01803,0.82045 l 0,1.94708 a 2.4532687,1.0151456 0 0 0 -1.01803,0.82043 2.4532687,1.0151456 0 0 0 2.45347,1.01542 2.4532687,1.0151456 0 0 0 2.45348,-1.01542 2.4532687,1.0151456 0 0 0 -1.07822,-0.83745 l 0,-1.91044 a 2.4532687,1.0151456 0 0 0 1.07822,-0.84007 2.4532687,1.0151456 0 0 0 -1.07822,-0.83876 l 0,-1.96932 a 2.4532687,1.0151456 0 0 0 1.07822,-0.84138 2.4532687,1.0151456 0 0 0 -2.45348,-1.01409 z"
       id="path4262"
       inkscape:connector-curvature="0" />
    <path
       inkscape:connector-curvature="0"
       id="path4266"
       d="m 141.36438,120.69223 a 2.4532687,1.0151456 0 0 0 -2.45347,1.01409 2.4532687,1.0151456 0 0 0 1.01803,0.82175 l 0,2.00595 a 2.4532687,1.0151456 0 0 0 -1.01803,0.82176 2.4532687,1.0151456 0 0 0 1.01803,0.82045 l 0,1.94708 a 2.4532687,1.0151456 0 0 0 -1.01803,0.82043 2.4532687,1.0151456 0 0 0 2.45347,1.01542 2.4532687,1.0151456 0 0 0 2.45348,-1.01542 2.4532687,1.0151456 0 0 0 -1.07822,-0.83745 l 0,-1.91044 a 2.4532687,1.0151456 0 0 0 1.07822,-0.84007 2.4532687,1.0151456 0 0 0 -1.07822,-0.83876 l 0,-1.96932 a 2.4532687,1.0151456 0 0 0 1.07822,-0.84138 2.4532687,1.0151456 0 0 0 -2.45348,-1.01409 z"
       style="fill:none;fill-opacity:1;stroke:#3b52c7;stroke-width:1;stroke-miterlimit:4;stroke-dasharray:none;stroke-opacity:1" />
    <use
       height="100%"
       width="100%"
       transform="translate(-13.384521,22.097087)"
       id="use4268"
       xlink:href="#path4266"
       y="0"
       x="0" />
    <use
       height="100%"
       width="100%"
       transform="translate(13.258252,22.349625)"
       id="use4270"
       xlink:href="#path4262"
       y="0"
       x="0" />
  </g>
  <g
     id="Tile_22">
    <use
       height="100%"
       width="100%"
       transform="translate(-43.436559,0)"
       id="use4272"
       xlink:href="#path4266"
       y="0"
       x="0" />
    <use
       height="100%"
       width="100%"
       transform="translate(-16.920055,0)"
       id="use4274"
       xlink:href="#path4262"
       y="0"
       x="0" />
    <use
       x="0"
       y="0"
       xlink:href="#path4262"
       id="use4276"
       transform="translate(-29.925769,21.844548)"
       width="100%"
       height="100%" />
    <use
       x="0"
       y="0"
       xlink:href="#path4266"
       id="use4278"
       transform="translate(-30.430845,21.970818)"
       width="100%"
       height="100%" />
  </g>
  <g
     id="Tile_21">
    <use
       height="100%"
       width="100%"
       transform="translate(-46.972093,21.844548)"
       id="use4280"
       xlink:href="#path4262"
       y="0"
       x="0" />
    <use
       x="0"
       y="0"
       xlink:href="#path4262"
       id="use4282"
       transform="translate(-58.841386,21.844548)"
       width="100%"
       height="100%" />
    <use
       x="0"
       y="0"
       xlink:href="#path4266"
       id="use4284"
       transform="translate(-66.417529,0)"
       width="100%"
       height="100%" />
  </g>
  <g
     id="Tile_20">
    <use
       height="100%"
       width="100%"
       transform="translate(-83.337585,21.844548)"
       id="use4286"
       xlink:href="#path4262"
       y="0"
       x="0" />
    <use
       height="100%"
       width="100%"
       transform="translate(-96.595836,0)"
       id="use4288"
       xlink:href="#path4266"
       y="0"
       x="0" />
  </g>
  <g
     id="Tile_26">
    <use
       x="0"
       y="0"
       xlink:href="#path4262"
       id="use4290"
       transform="translate(-90.661192,41.542522)"
       width="100%"
       height="100%" />
    <use
       height="100%"
       width="100%"
       transform="matrix(0.34626166,0.93813798,-0.93813798,0.34626166,114.06876,5.9431581)"
       id="use4292"
       xlink:href="#path4262"
       y="0"
       x="0" />
    <use
       height="100%"
       width="100%"
       transform="matrix(-1,0,0,1,181.15295,41.542522)"
       id="use4294"
       xlink:href="#path4262"
       y="0"
       x="0" />
    <use
       x="0"
       y="0"
       xlink:href="#path4262"
       id="use4296"
       transform="matrix(-0.34626166,0.93813798,0.93813798,0.34626166,-23.577005,5.9431581)"
       width="100%"
       height="100%" />
    <use
       x="0"
       y="0"
       xlink:href="#path4266"
       id="use4298"
       transform="matrix(1,0,0,-1,-103.91944,310.41)"
       width="100%"
       height="100%" />
    <use
       height="100%"
       width="100%"
       transform="matrix(0.41898937,-0.90799114,-0.90799114,-0.41898937,94.913575,363.80547)"
       id="use4300"
       xlink:href="#path4266"
       y="0"
       x="0" />
    <use
       height="100%"
       width="100%"
       transform="matrix(-1,0,0,-1,193.77537,310.41)"
       id="use4302"
       xlink:href="#path4266"
       y="0"
       x="0" />
    <use
       x="0"
       y="0"
       xlink:href="#path4266"
       id="use4304"
       transform="matrix(-0.41898937,-0.90799114,0.90799114,-0.41898937,-5.0576471,363.80547)"
       width="100%"
       height="100%" />
  </g>
  <g
     id="Tile_24">
    <use
       x="0"
       y="0"
       xlink:href="#path4262"
       id="use4306"
       transform="translate(28.031733,0.50507639)"
       width="100%"
       height="100%" />
    <use
       height="100%"
       width="100%"
       transform="translate(36.870568,0.37880732)"
       id="use4308"
       xlink:href="#path4262"
       y="0"
       x="0" />
    <use
       x="0"
       y="0"
       xlink:href="#path4262"
       id="use4310"
       transform="translate(45.835672,0.50507639)"
       width="100%"
       height="100%" />
    <use
       x="0"
       y="0"
       xlink:href="#path4266"
       id="use4312"
       transform="translate(14.520943,22.097087)"
       width="100%"
       height="100%" />
    <use
       height="100%"
       width="100%"
       transform="translate(23.612316,22.097087)"
       id="use4314"
       xlink:href="#path4266"
       y="0"
       x="0" />
    <use
       x="0"
       y="0"
       xlink:href="#path4266"
       id="use4316"
       transform="translate(32.451151,22.097087)"
       width="100%"
       height="100%" />
  </g>
  <g
     id="Tile_19">
    <use
       height="100%"
       width="100%"
       transform="matrix(2.4266399,0,0,2.4266399,-311.58636,-194.32207)"
       id="use4320"
       xlink:href="#path4251"
       y="0"
       x="0" />
  </g>
  <g
     id="Tile_27">
    <use
       height="100%"
       width="100%"
       transform="translate(-44.194172,50.255089)"
       id="use4330"
       xlink:href="#path4262"
       y="0"
       x="0" />
    <use
       x="0"
       y="0"
       xlink:href="#path4262"
       id="use4332"
       transform="translate(-44.194172,61.493036)"
       width="100%"
       height="100%" />
    <use
       x="0"
       y="0"
       xlink:href="#path4251"
       id="use4336"
       transform="translate(-69.321716,27.274119)"
       width="100%"
       height="100%" />
    <use
       height="100%"
       width="100%"
       transform="translate(-69.321716,38.512066)"
       id="use4338"
       xlink:href="#path4251"
       y="0"
       x="0" />
    <use
       x="0"
       y="0"
       xlink:href="#path4251"
       id="use4340"
       transform="translate(-69.321716,50.12882)"
       width="100%"
       height="100%" />
    <use
       height="100%"
       width="100%"
       transform="translate(-66.417527,49.876282)"
       id="use4342"
       xlink:href="#path4266"
       y="0"
       x="0" />
    <use
       x="0"
       y="0"
       xlink:href="#path4266"
       id="use4344"
       transform="translate(-66.417527,61.366767)"
       width="100%"
       height="100%" />
    <use
       x="0"
       y="0"
       xlink:href="#path4266"
       id="use4346"
       transform="translate(-66.417527,38.385797)"
       width="100%"
       height="100%" />
    <use
       x="0"
       y="0"
       xlink:href="#path4262"
       id="use4359"
       transform="translate(-44.194172,38.385797)"
       width="100%"
       height="100%" />
  </g>
  <g
     id="Tile_25">
    <use
       height="100%"
       width="100%"
       transform="translate(-120.20815,27.274119)"
       id="use4322"
       xlink:href="#path4251"
       y="0"
       x="0" />
    <use
       x="0"
       y="0"
       xlink:href="#path4266"
       id="use4324"
       transform="translate(-126.90041,50.507627)"
       width="100%"
       height="100%" />
    <use
       x="0"
       y="0"
       xlink:href="#path4262"
       id="use4326"
       transform="translate(-122.35473,50.760165)"
       width="100%"
       height="100%" />
    <use
       height="100%"
       width="100%"
       transform="translate(-122.35473,61.998112)"
       id="use4328"
       xlink:href="#path4262"
       y="0"
       x="0" />
    <use
       height="100%"
       width="100%"
       transform="translate(-126.90041,61.998112)"
       id="use4334"
       xlink:href="#path4266"
       y="0"
       x="0" />
    <use
       height="100%"
       width="100%"
       transform="translate(-104.9296,50.760165)"
       id="use4361"
       xlink:href="#path4262"
       y="0"
       x="0" />
    <use
       x="0"
       y="0"
       xlink:href="#path4262"
       id="use4363"
       transform="translate(-104.9296,61.998112)"
       width="100%"
       height="100%" />
  </g>
  <text
     xml:space="preserve"
     style="font-style:normal;font-weight:normal;font-size:40px;line-height:125%;font-family:'Ume Mincho S3';text-align:center;letter-spacing:0px;word-spacing:0px;text-anchor:middle;fill:#3b52c7;fill-opacity:1;stroke:none;stroke-width:1px;stroke-linecap:butt;stroke-linejoin:miter;stroke-opacity:1;-inkscape-font-specification:'Ume Mincho S3';font-stretch:normal;font-variant:normal;"
     x="104.04572"
     y="191.21193"
     id="text4305"
     sodipodi:linespacing="125%"><tspan
       sodipodi:role="line"
       id="tspan4307"
       x="104.04572"
       y="191.21193"
       style="-inkscape-font-specification:UnBatang;font-family:UnBatang;font-weight:normal;font-style:normal;font-stretch:normal;font-variant:normal">1</tspan></text>
  <text
     sodipodi:linespacing="125%"
     id="text4309"
     y="191.21193"
     x="134.60284"
     style="font-style:normal;font-variant:normal;font-weight:normal;font-stretch:normal;font-size:40px;line-height:125%;font-family:'Ume Mincho S3';-inkscape-font-specification:'Ume Mincho S3';text-align:center;letter-spacing:0px;word-spacing:0px;text-anchor:middle;fill:#3b52c7;fill-opacity:1;stroke:none;stroke-width:1px;stroke-linecap:butt;stroke-linejoin:miter;stroke-opacity:1"
     xml:space="preserve"><tspan
       style="font-style:normal;font-variant:normal;font-weight:normal;font-stretch:normal;font-family:UnBatang;-inkscape-font-specification:UnBatang"
       y="191.21193"
       x="134.60284"
       id="tspan4311"
       sodipodi:role="line">2</tspan></text>
  <text
     xml:space="preserve"
     style="font-style:normal;font-variant:normal;font-weight:normal;font-stretch:normal;font-size:40px;line-height:125%;font-family:'Ume Mincho S3';-inkscape-font-specification:'Ume Mincho S3';text-align:center;letter-spacing:0px;word-spacing:0px;text-anchor:middle;fill:#3b52c7;fill-opacity:1;stroke:none;stroke-width:1px;stroke-linecap:butt;stroke-linejoin:miter;stroke-opacity:1"
     x="164.90742"
     y="191.21193"
     id="text4313"
     sodipodi:linespacing="125%"><tspan
       sodipodi:role="line"
       id="tspan4315"
       x="164.90742"
       y="191.21193"
       style="font-style:normal;font-variant:normal;font-weight:normal;font-stretch:normal;font-family:UnBatang;-inkscape-font-specification:UnBatang">3</tspan></text>
  <text
     sodipodi:linespacing="125%"
     id="text4317"
     y="229.34518"
     x="164.90742"
     style="font-style:normal;font-variant:normal;font-weight:normal;font-stretch:normal;font-size:40px;line-height:125%;font-family:'Ume Mincho S3';-inkscape-font-specification:'Ume Mincho S3';text-align:center;letter-spacing:0px;word-spacing:0px;text-anchor:middle;fill:#3b52c7;fill-opacity:1;stroke:none;stroke-width:1px;stroke-linecap:butt;stroke-linejoin:miter;stroke-opacity:1"
     xml:space="preserve"><tspan
       style="font-style:normal;font-variant:normal;font-weight:normal;font-stretch:normal;font-family:UnBatang;-inkscape-font-specification:UnBatang"
       y="229.34518"
       x="164.90742"
       id="tspan4319"
       sodipodi:role="line">9</tspan></text>
  <text
     xml:space="preserve"
     style="font-style:normal;font-variant:normal;font-weight:normal;font-stretch:normal;font-size:40px;line-height:125%;font-family:'Ume Mincho S3';-inkscape-font-specification:'Ume Mincho S3';text-align:center;letter-spacing:0px;word-spacing:0px;text-anchor:middle;fill:#3b52c7;fill-opacity:1;stroke:none;stroke-width:1px;stroke-linecap:butt;stroke-linejoin:miter;stroke-opacity:1"
     x="134.85539"
     y="229.34518"
     id="text4321"
     sodipodi:linespacing="125%"><tspan
       sodipodi:role="line"
       id="tspan4323"
       x="134.85539"
       y="229.34518"
       style="font-style:normal;font-variant:normal;font-weight:normal;font-stretch:normal;font-family:UnBatang;-inkscape-font-specification:UnBatang">8</tspan></text>
  <text
     sodipodi:linespacing="125%"
     id="text4325"
     y="229.34518"
     x="104.55082"
     style="font-style:normal;font-variant:normal;font-weight:normal;font-stretch:normal;font-size:40px;line-height:125%;font-family:'Ume Mincho S3';-inkscape-font-specification:'Ume Mincho S3';text-align:center;letter-spacing:0px;word-spacing:0px;text-anchor:middle;fill:#3b52c7;fill-opacity:1;stroke:none;stroke-width:1px;stroke-linecap:butt;stroke-linejoin:miter;stroke-opacity:1"
     xml:space="preserve"><tspan
       style="font-style:normal;font-variant:normal;font-weight:normal;font-stretch:normal;font-family:UnBatang;-inkscape-font-specification:UnBatang"
       y="229.34518"
       x="104.55082"
       id="tspan4327"
       sodipodi:role="line">7</tspan></text>
  <text
     xml:space="preserve"
     style="font-style:normal;font-variant:normal;font-weight:normal;font-stretch:normal;font-size:40px;line-height:125%;font-family:'Ume Mincho S3';-inkscape-font-specification:'Ume Mincho S3';text-align:center;letter-spacing:0px;word-spacing:0px;text-anchor:middle;fill:#3b52c7;fill-opacity:1;stroke:none;stroke-width:1px;stroke-linecap:butt;stroke-linejoin:miter;stroke-opacity:1"
     x="74.498779"
     y="229.34518"
     id="text4329"
     sodipodi:linespacing="125%"><tspan
       sodipodi:role="line"
       id="tspan4331"
       x="74.498779"
       y="229.34518"
       style="font-style:normal;font-variant:normal;font-weight:normal;font-stretch:normal;font-family:UnBatang;-inkscape-font-specification:UnBatang">6</tspan></text>
  <text
     sodipodi:linespacing="125%"
     id="text4333"
     y="229.34518"
     x="45.204357"
     style="font-style:normal;font-variant:normal;font-weight:normal;font-stretch:normal;font-size:40px;line-height:125%;font-family:'Ume Mincho S3';-inkscape-font-specification:'Ume Mincho S3';text-align:center;letter-spacing:0px;word-spacing:0px;text-anchor:middle;fill:#3b52c7;fill-opacity:1;stroke:none;stroke-width:1px;stroke-linecap:butt;stroke-linejoin:miter;stroke-opacity:1"
     xml:space="preserve"><tspan
       style="font-style:normal;font-variant:normal;font-weight:normal;font-stretch:normal;font-family:UnBatang;-inkscape-font-specification:UnBatang"
       y="229.34518"
       x="45.204357"
       id="tspan4335"
       sodipodi:role="line">5</tspan></text>
  <text
     xml:space="preserve"
     style="font-style:normal;font-variant:normal;font-weight:normal;font-stretch:normal;font-size:40px;line-height:125%;font-family:'Ume Mincho S3';-inkscape-font-specification:'Ume Mincho S3';text-align:center;letter-spacing:0px;word-spacing:0px;text-anchor:middle;fill:#3b52c7;fill-opacity:1;stroke:none;stroke-width:1px;stroke-linecap:butt;stroke-linejoin:miter;stroke-opacity:1"
     x="14.647243"
     y="229.34518"
     id="text4337"
     sodipodi:linespacing="125%"><tspan
       sodipodi:role="line"
       id="tspan4339"
       x="14.647243"
       y="229.34518"
       style="font-style:normal;font-variant:normal;font-weight:normal;font-stretch:normal;font-family:UnBatang;-inkscape-font-specification:UnBatang">4</tspan></text>
</svg>
