<?xml version="1.0" encoding="UTF-8" standalone="no"?>
<!-- Created with Inkscape (http://www.inkscape.org/) -->

<svg
   xmlns:osb="http://www.openswatchbook.org/uri/2009/osb"
   xmlns:dc="http://purl.org/dc/elements/1.1/"
   xmlns:cc="http://creativecommons.org/ns#"
   xmlns:rdf="http://www.w3.org/1999/02/22-rdf-syntax-ns#"
   xmlns:svg="http://www.w3.org/2000/svg"
   xmlns="http://www.w3.org/2000/svg"
   xmlns:xlink="http://www.w3.org/1999/xlink"
   xmlns:sodipodi="http://sodipodi.sourceforge.net/DTD/sodipodi-0.dtd"
   xmlns:inkscape="http://www.inkscape.org/namespaces/inkscape"
   width="180"
   height="234"
   viewBox="0 0 180 234"
   version="1.1"
   inkscape:version="0.91 r13725"
   sodipodi:docname="tileset01.svg">
  <defs>
    <linearGradient
       id="linearGradient4208"
       osb:paint="solid">
      <stop
         style="stop-color:#00ff00;stop-opacity:1;"
         offset="0"
         id="stop4210" />
    </linearGradient>
  </defs>
  <sodipodi:namedview
     pagecolor="#ffffff"
     bordercolor="#666666"
     borderopacity="1.0"
     inkscape:pageopacity="0.0"
     inkscape:pageshadow="2"
     inkscape:zoom="3.959798"
     inkscape:cx="54.85516"
     inkscape:cy="199.05436"
     inkscape:document-units="px"
     showgrid="false"
     units="px"
     borderlayer="true"
     inkscape:showpageshadow="false"
     showguides="true"
     inkscape:guide-bbox="true"
     inkscape:window-width="1680"
     inkscape:window-height="1026"
     inkscape:window-x="1680"
     inkscape:window-y="24"
     inkscape:window-maximized="1">
    <sodipodi:guide
       position="30,0"
       orientation="1,0"
       id="guide4136"
       inkscape:label=""
       inkscape:color="rgb(0,0,255)" />
    <sodipodi:guide
       position="60,0"
       orientation="1,0"
       id="guide4138"
       inkscape:label=""
       inkscape:color="rgb(0,0,255)" />
    <sodipodi:guide
       position="90,0"
       orientation="1,0"
       id="guide4140"
       inkscape:label=""
       inkscape:color="rgb(0,0,255)" />
    <sodipodi:guide
       position="120,0"
       orientation="1,0"
       id="guide4142"
       inkscape:label=""
       inkscape:color="rgb(0,0,255)" />
    <sodipodi:guide
       position="150,0"
       orientation="1,0"
       id="guide4144"
       inkscape:label=""
       inkscape:color="rgb(0,0,255)" />
    <sodipodi:guide
       position="0,39"
       orientation="0,1"
       id="guide4146"
       inkscape:label=""
       inkscape:color="rgb(0,0,255)" />
    <sodipodi:guide
       position="0,78"
       orientation="0,1"
       id="guide4150"
       inkscape:label=""
       inkscape:color="rgb(0,0,255)" />
    <sodipodi:guide
       position="0,117"
       orientation="0,1"
       id="guide4152"
       inkscape:label=""
       inkscape:color="rgb(0,0,255)" />
    <sodipodi:guide
       position="0,156"
       orientation="0,1"
       id="guide4154"
       inkscape:label=""
       inkscape:color="rgb(0,0,255)" />
    <sodipodi:guide
       position="0,195"
       orientation="0,1"
       id="guide4156"
       inkscape:label=""
       inkscape:color="rgb(0,0,255)" />
  </sodipodi:namedview>
  <metadata>
    <rdf:RDF>
      <cc:Work
         rdf:about="">
        <dc:title></dc:title>
      </cc:Work>
    </rdf:RDF>
  </metadata>
  <g
     id="Tile_01"
     transform="matrix(1.9441346,0,0,1.9441346,-26.58292,-22.848292)">
    <use
       height="100%"
       width="100%"
       transform="translate(-53.75,2.8571429)"
       id="use4243"
       xlink:href="#path4202"
       y="0"
       x="0" />
  </g>
  <g
     id="Tile_02">
    <use
       height="100%"
       width="100%"
       transform="matrix(1.3217885,0,0,1.3217885,-46.976041,17.983351)"
       id="use4230"
       xlink:href="#path4228"
       y="0"
       x="0" />
    <use
       height="100%"
       width="100%"
       transform="matrix(1.3217884,0,0,1.3217884,-62.013075,-29.121336)"
       id="use4236"
       xlink:href="#path4226"
       y="0"
       x="0" />
  </g>
  <g
     id="Tile_03">
    <path
       style="opacity:1;fill:#0000ff;fill-opacity:1;fill-rule:evenodd;stroke:none;stroke-width:0.1;stroke-miterlimit:4;stroke-dasharray:none;stroke-opacity:1"
       d="M 69.250606,2.1328801 A 5.6741302,5.6741302 0 0 0 63.576475,7.8070093 5.6741302,5.6741302 0 0 0 69.250606,13.48114 5.6741302,5.6741302 0 0 0 74.924735,7.8070093 5.6741302,5.6741302 0 0 0 69.250606,2.1328801 Z m 3.633511,1.9932833 a 3.7335582,3.7335584 0 0 1 -3.679319,3.6822849 3.7335582,3.7335584 0 0 1 3.679319,-3.6822849 z m -7.463551,0 a 3.7335582,3.7335584 0 0 1 3.682275,3.6778199 3.7335582,3.7335584 0 0 1 -3.682275,-3.6778199 z m 3.680797,3.7798029 a 3.7335582,3.7335584 0 0 1 -3.679318,3.6822847 3.7335582,3.7335584 0 0 1 3.679318,-3.6822847 z m 0.101961,0 A 3.7335582,3.7335584 0 0 1 72.8856,11.585299 3.7335582,3.7335584 0 0 1 69.203324,7.9059663 Z"
       id="path4228"
       inkscape:connector-curvature="0" />
    <path
       style="opacity:1;fill:#ff0000;fill-opacity:1;fill-rule:evenodd;stroke:none;stroke-width:0.1;stroke-miterlimit:4;stroke-dasharray:none;stroke-opacity:1"
       d="m 75.096904,13.588461 a 5.6741302,5.6741302 0 0 0 -5.674132,5.674129 5.6741302,5.6741302 0 0 0 5.674132,5.674131 5.6741302,5.6741302 0 0 0 5.674129,-5.674131 5.6741302,5.6741302 0 0 0 -5.674129,-5.674129 z m 3.63351,1.993283 a 3.7335582,3.7335584 0 0 1 -3.679319,3.682285 3.7335582,3.7335584 0 0 1 3.679319,-3.682285 z m -7.463551,0 a 3.7335582,3.7335584 0 0 1 3.682275,3.67782 3.7335582,3.7335584 0 0 1 -3.682275,-3.67782 z m 3.680797,3.779803 a 3.7335582,3.7335584 0 0 1 -3.679317,3.682285 3.7335582,3.7335584 0 0 1 3.679317,-3.682285 z m 0.101961,0 a 3.7335582,3.7335584 0 0 1 3.682276,3.679333 3.7335582,3.7335584 0 0 1 -3.682276,-3.679333 z"
       id="path4202"
       inkscape:connector-curvature="0" />
    <path
       inkscape:connector-curvature="0"
       id="path4226"
       d="m 80.627184,25.044043 a 5.6741302,5.6741302 0 0 0 -5.674132,5.674129 5.6741302,5.6741302 0 0 0 5.674132,5.674131 5.6741302,5.6741302 0 0 0 5.674129,-5.674131 5.6741302,5.6741302 0 0 0 -5.674129,-5.674129 z m 3.63351,1.993283 a 3.7335582,3.7335584 0 0 1 -3.679319,3.682285 3.7335582,3.7335584 0 0 1 3.679319,-3.682285 z m -7.46355,0 a 3.7335582,3.7335584 0 0 1 3.682274,3.67782 3.7335582,3.7335584 0 0 1 -3.682274,-3.67782 z m 3.680796,3.779803 a 3.7335582,3.7335584 0 0 1 -3.679317,3.682285 3.7335582,3.7335584 0 0 1 3.679317,-3.682285 z m 0.101961,0 a 3.7335582,3.7335584 0 0 1 3.682276,3.679333 3.7335582,3.7335584 0 0 1 -3.682276,-3.679333 z"
       style="opacity:1;fill:#00ff00;fill-opacity:1;fill-rule:evenodd;stroke:none;stroke-width:0.1;stroke-miterlimit:4;stroke-dasharray:none;stroke-opacity:1" />
  </g>
  <g
     id="Tile_04">
    <use
       height="100%"
       width="100%"
       transform="translate(29.548525,0.39259094)"
       id="use4251"
       xlink:href="#path4228"
       y="0"
       x="0" />
    <use
       height="100%"
       width="100%"
       transform="translate(18.172821,0.12626913)"
       id="use4257"
       xlink:href="#path4226"
       y="0"
       x="0" />
    <use
       height="100%"
       width="100%"
       transform="translate(42.306525,23.037358)"
       id="use4255"
       xlink:href="#path4228"
       y="0"
       x="0" />
    <use
       height="100%"
       width="100%"
       transform="translate(30.929576,-22.521851)"
       id="use4253"
       xlink:href="#path4226"
       y="0"
       x="0" />
  </g>
  <g
     id="Tile_05"
     transform="translate(29.642857,0)">
    <use
       x="0"
       y="0"
       xlink:href="#path4228"
       id="use4277"
       transform="translate(29.548525,0.39259094)"
       width="100%"
       height="100%" />
    <use
       x="0"
       y="0"
       xlink:href="#path4226"
       id="use4279"
       transform="translate(18.172821,0.12626913)"
       width="100%"
       height="100%" />
    <use
       x="0"
       y="0"
       xlink:href="#path4202"
       id="use4285"
       transform="translate(30,0)"
       width="100%"
       height="100%" />
    <use
       x="0"
       y="0"
       xlink:href="#path4228"
       id="use4281"
       transform="translate(42.306525,23.037358)"
       width="100%"
       height="100%" />
    <use
       x="0"
       y="0"
       xlink:href="#path4226"
       id="use4283"
       transform="translate(30.929576,-22.521851)"
       width="100%"
       height="100%" />
  </g>
  <g
     id="Tile_06">
    <use
       height="100%"
       width="100%"
       transform="translate(77.806948,-24.054257)"
       id="use4321"
       xlink:href="#path4226"
       y="0"
       x="0" />
    <use
       height="100%"
       width="100%"
       transform="translate(90.307948,-24.05463)"
       id="use4319"
       xlink:href="#path4226"
       y="0"
       x="0" />
    <use
       height="100%"
       width="100%"
       transform="translate(95.838228,12.753432)"
       id="use4307"
       xlink:href="#path4202"
       y="0"
       x="0" />
    <use
       height="100%"
       width="100%"
       transform="translate(83.337228,12.753177)"
       id="use4309"
       xlink:href="#path4202"
       y="0"
       x="0" />
    <use
       height="100%"
       width="100%"
       transform="translate(95.838223,0)"
       id="use4311"
       xlink:href="#path4202"
       y="0"
       x="0" />
    <use
       height="100%"
       width="100%"
       transform="translate(83.337585,0)"
       id="use4313"
       xlink:href="#path4202"
       y="0"
       x="0" />
  </g>
  <g
     id="Tile_07"
     transform="matrix(0.73527676,0,0,0.73527676,-106.53807,48.496704)">
    <use
       height="100%"
       width="100%"
       transform="translate(72.655048,-34.873246)"
       id="use4351"
       xlink:href="#path4226"
       y="0"
       x="0" />
    <use
       x="0"
       y="0"
       xlink:href="#path4226"
       id="use4339"
       transform="translate(84.160958,-28.347507)"
       width="100%"
       height="100%" />
    <use
       x="0"
       y="0"
       xlink:href="#path4226"
       id="use4341"
       transform="translate(95.803308,-23.19598)"
       width="100%"
       height="100%" />
    <use
       x="0"
       y="0"
       xlink:href="#path4202"
       id="use4343"
       transform="translate(95.838228,12.753432)"
       width="100%"
       height="100%" />
    <use
       x="0"
       y="0"
       xlink:href="#path4202"
       id="use4345"
       transform="translate(83.337228,12.753177)"
       width="100%"
       height="100%" />
    <use
       x="0"
       y="0"
       xlink:href="#path4202"
       id="use4347"
       transform="translate(95.838223,0)"
       width="100%"
       height="100%" />
    <use
       x="0"
       y="0"
       xlink:href="#path4202"
       id="use4349"
       transform="translate(83.337585,0)"
       width="100%"
       height="100%" />
  </g>
  <g
     id="Tile_08">
    <use
       height="100%"
       width="100%"
       transform="matrix(0.7190981,0,0,0.7190981,-9.9024954,39.704019)"
       id="use4353"
       xlink:href="#path4228"
       y="0"
       x="0" />
    <use
       x="0"
       y="0"
       xlink:href="#path4228"
       id="use4356"
       transform="matrix(0.7190981,0,0,0.7190981,-9.9024954,48.633175)"
       width="100%"
       height="100%" />
    <use
       height="100%"
       width="100%"
       transform="matrix(0.7190981,0,0,0.7190981,-9.9024954,57.407042)"
       id="use4358"
       xlink:href="#path4228"
       y="0"
       x="0" />
    <use
       x="0"
       y="0"
       xlink:href="#path4228"
       id="use4360"
       transform="matrix(0.7190981,0,0,0.7190981,-9.9024954,66.025619)"
       width="100%"
       height="100%" />
    <use
       x="0"
       y="0"
       xlink:href="#path4228"
       id="use4362"
       transform="matrix(0.7190981,0,0,0.7190981,-0.19689082,39.704019)"
       width="100%"
       height="100%" />
    <use
       height="100%"
       width="100%"
       transform="matrix(0.7190981,0,0,0.7190981,-0.19689082,48.633175)"
       id="use4364"
       xlink:href="#path4228"
       y="0"
       x="0" />
    <use
       x="0"
       y="0"
       xlink:href="#path4228"
       id="use4366"
       transform="matrix(0.7190981,0,0,0.7190981,-0.19689082,57.407042)"
       width="100%"
       height="100%" />
    <use
       height="100%"
       width="100%"
       transform="matrix(0.7190981,0,0,0.7190981,-0.19689082,66.025619)"
       id="use4368"
       xlink:href="#path4228"
       y="0"
       x="0" />
  </g>
  <g
     id="Tile_09">
    <use
       height="100%"
       width="100%"
       transform="matrix(0.76095825,0,0,0.76095825,13.137342,65.399291)"
       id="use4386"
       xlink:href="#path4228"
       y="0"
       x="0" />
    <use
       height="100%"
       width="100%"
       transform="matrix(0.76095825,0,0,0.76095825,8.6885543,43.815104)"
       id="use4383"
       xlink:href="#path4202"
       y="0"
       x="0" />
    <use
       height="100%"
       width="100%"
       transform="matrix(0.76095825,0,0,0.76095825,4.4806083,22.398284)"
       id="use4380"
       xlink:href="#path4226"
       y="0"
       x="0" />
    <use
       x="0"
       y="0"
       xlink:href="#path4228"
       id="use4389"
       transform="matrix(0.76095825,0,0,0.76095825,22.409591,65.399291)"
       width="100%"
       height="100%" />
    <use
       x="0"
       y="0"
       xlink:href="#path4202"
       id="use4391"
       transform="matrix(0.76095825,0,0,0.76095825,17.960804,43.815104)"
       width="100%"
       height="100%" />
    <use
       x="0"
       y="0"
       xlink:href="#path4226"
       id="use4393"
       transform="matrix(0.76095825,0,0,0.76095825,13.752857,22.398284)"
       width="100%"
       height="100%" />
    <use
       height="100%"
       width="100%"
       transform="matrix(0.76095825,0,0,0.76095825,31.633799,65.399291)"
       id="use4395"
       xlink:href="#path4228"
       y="0"
       x="0" />
    <use
       height="100%"
       width="100%"
       transform="matrix(0.76095825,0,0,0.76095825,27.185011,43.815104)"
       id="use4397"
       xlink:href="#path4202"
       y="0"
       x="0" />
    <use
       height="100%"
       width="100%"
       transform="matrix(0.76095825,0,0,0.76095825,22.977065,22.398284)"
       id="use4399"
       xlink:href="#path4226"
       y="0"
       x="0" />
  </g>
</svg>
